HIERARCHY
ROOT Hips
{
  OFFSET -0.0292666 18.5223 -4.19344
  CHANNELS 6 Xposition Yposition Zposition Zrotation Xrotation Yrotation
  JOINT LHipJoint
  {
    OFFSET 0 0 0
    CHANNELS 6 Xposition Yposition Zposition Zrotation Xrotation Yrotation
    JOINT LeftUpLeg
    {
      OFFSET 1.8 -1.4 0.085
      CHANNELS 6 Xposition Yposition Zposition Zrotation Xrotation Yrotation
      JOINT LeftLeg
      {
        OFFSET 2.215 -6 0
        CHANNELS 6 Xposition Yposition Zposition Zrotation Xrotation Yrotation
        JOINT LeftFoot
        {
          OFFSET 2.5 -6.9 0
          CHANNELS 6 Xposition Yposition Zposition Zrotation Xrotation Yrotation
          JOINT LeftToeBase
          {
            OFFSET 0.2 -0.5 1.95
            CHANNELS 6 Xposition Yposition Zposition Zrotation Xrotation Yrotation
            End Site
            {
              OFFSET 0 0 1
            }
          }
        }
      }
    }
  }
  JOINT RHipJoint
  {
    OFFSET 0 0 0
    CHANNELS 6 Xposition Yposition Zposition Zrotation Xrotation Yrotation
    JOINT RightUpLeg
    {
      OFFSET -1.8 -1.4 0.085
      CHANNELS 6 Xposition Yposition Zposition Zrotation Xrotation Yrotation
      JOINT RightLeg
      {
        OFFSET -2.215 -6 0
        CHANNELS 6 Xposition Yposition Zposition Zrotation Xrotation Yrotation
        JOINT RightFoot
        {
          OFFSET -2.5 -6.9 0
          CHANNELS 6 Xposition Yposition Zposition Zrotation Xrotation Yrotation
          JOINT RightToeBase
          {
            OFFSET -0.2 -0.5 1.95
            CHANNELS 6 Xposition Yposition Zposition Zrotation Xrotation Yrotation
            End Site
            {
              OFFSET 0 0 1
            }
          }
        }
      }
    }
  }
  JOINT LowerBack
  {
    OFFSET 0 0 0
    CHANNELS 6 Xposition Yposition Zposition Zrotation Xrotation Yrotation
    JOINT Spine
    {
      OFFSET -0.087 1.94 -0.2889
      CHANNELS 6 Xposition Yposition Zposition Zrotation Xrotation Yrotation
      JOINT Spine1
      {
        OFFSET 0 1.95 0.06
        CHANNELS 6 Xposition Yposition Zposition Zrotation Xrotation Yrotation
        JOINT Neck
        {
          OFFSET 0 0 0
          CHANNELS 6 Xposition Yposition Zposition Zrotation Xrotation Yrotation
          JOINT Neck1
          {
            OFFSET 0 1.6 0.34
            CHANNELS 6 Xposition Yposition Zposition Zrotation Xrotation Yrotation
            JOINT Head
            {
              OFFSET 0 1.667 -0.24
              CHANNELS 6 Xposition Yposition Zposition Zrotation Xrotation Yrotation
              End Site
              {
                OFFSET 0 1.686 -0.12
              }
            }
          }
        }
        JOINT LeftShoulder
        {
          OFFSET 0 0 0
          CHANNELS 6 Xposition Yposition Zposition Zrotation Xrotation Yrotation
          JOINT LeftArm
          {
            OFFSET 2.7 1.55 -0.73
            CHANNELS 6 Xposition Yposition Zposition Zrotation Xrotation Yrotation
            JOINT LeftForeArm
            {
              OFFSET 5.45 0 0
              CHANNELS 6 Xposition Yposition Zposition Zrotation Xrotation Yrotation
              JOINT LeftHand
              {
                OFFSET 3.45 0 0
                CHANNELS 6 Xposition Yposition Zposition Zrotation Xrotation Yrotation
                JOINT LeftFingerBase
                {
                  OFFSET 0 0 0
                  CHANNELS 6 Xposition Yposition Zposition Zrotation Xrotation Yrotation
                  JOINT LeftHandIndex1
                  {
                    OFFSET 0.75 0 0
                    CHANNELS 6 Xposition Yposition Zposition Zrotation Xrotation Yrotation
                    End Site
                    {
                      OFFSET 0.6 0 0
                    }
                  }
                }
                JOINT LThumb
                {
                  OFFSET 0 0 0
                  CHANNELS 6 Xposition Yposition Zposition Zrotation Xrotation Yrotation
                  End Site
                  {
                    OFFSET 0.59 0 0.59
                  }
                }
              }
            }
          }
        }
        JOINT RightShoulder
        {
          OFFSET 0 0 0
          CHANNELS 6 Xposition Yposition Zposition Zrotation Xrotation Yrotation
          JOINT RightArm
          {
            OFFSET -2.7 1.55 -0.73
            CHANNELS 6 Xposition Yposition Zposition Zrotation Xrotation Yrotation
            JOINT RightForeArm
            {
              OFFSET -5.45 0 0
              CHANNELS 6 Xposition Yposition Zposition Zrotation Xrotation Yrotation
              JOINT RightHand
              {
                OFFSET -3.45 0 0
                CHANNELS 6 Xposition Yposition Zposition Zrotation Xrotation Yrotation
                JOINT RightFingerBase
                {
                  OFFSET 0 0 0
                  CHANNELS 6 Xposition Yposition Zposition Zrotation Xrotation Yrotation
                  JOINT RightHandIndex1
                  {
                    OFFSET -0.75 0 0
                    CHANNELS 6 Xposition Yposition Zposition Zrotation Xrotation Yrotation
                    End Site
                    {
                      OFFSET -0.6 0 0
                    }
                  }
                }
                JOINT RThumb
                {
                  OFFSET 0 0 0
                  CHANNELS 6 Xposition Yposition Zposition Zrotation Xrotation Yrotation
                  End Site
                  {
                    OFFSET -0.59 0 0.59
                  }
                }
              }
            }
          }
        }
      }
    }
  }
}
MOTION
Frames:	4
Frame Time:	0.00833333
-6.50063 18.2355 -23.2142 5.03565 1.14931 15.9911 0 0 0 1.78906e-15 -7.95139e-16 -6.36111e-15 1.8 -1.4 0.085 -29.8357 -24.1669 -11.8788 2.215 -6 1.77636e-15 -9.73635 42.3129 -12.0076 2.5 -6.9 0 5.96051 9.872 20.7027 0.2 -0.5 1.95 -1.69076e-06 -2.16278e-13 -2.62396e-14 0 0 0 1.78906e-15 -7.95139e-16 -6.36111e-15 -1.8 -1.4 0.085 9.48481 -17.04 -2.32251 -2.215 -6 -3.55271e-15 16.1572 44.9108 3.58393 -2.5 -6.9 3.55271e-15 -4.86166 -29.4996 -32.213 -0.2 -0.5 1.95 5.56597e-15 0 1.59028e-15 0 0 0 1.78906e-15 -7.95139e-16 -6.36111e-15 -0.087 1.94 -0.2889 34.9951 12.4711 6.82836 0 1.95 0.06 -17.3924 -6.8587 12.2198 0 0 0 3.98452 -21.3482 5.81378 0 1.6 0.34 1.97635 15.5443 4.86908 0 1.667 -0.24 -19.2532 19.4617 26.4746 0 0 0 -6.66325 -1.06895 10.4656 2.7 1.55 -0.73 8.91361 8.84871 -6.46006 5.45 -3.55271e-15 0 68.8314 12.3304 -82.8039 3.45 -3.55271e-15 3.55271e-15 -26.7025 -2.38003 7.08053 0 0 0 -3.28308e-06 -7.71969e-07 -1.44725e-07 0.75 -3.55271e-15 0 3.97569e-15 -1.59028e-15 -2.18663e-15 0 0 0 -1.59028e-15 7.95139e-16 2.43511e-15 0 0 0 1.24246 0.493624 1.6767 -2.7 1.55 -0.73 36.7167 19.0748 80.7212 -5.45 3.55271e-15 0 150.651 -11.1127 118.059 -3.45 3.55271e-15 -3.55271e-15 -4.39798 -4.53433 -42.2559 0 0 0 -1.59028e-15 6.36111e-15 3.18055e-15 -0.75 0 0 -1.59028e-15 0 3.18055e-15 0 0 0 -1.59028e-15 6.36111e-15 3.18055e-15 
-6.52257 18.2995 -23.1977 4.33936 1.14611 16.8308 0 0 0 5.96354e-16 5.96354e-16 3.18055e-15 1.8 -1.4 0.085 -29.6559 -23.6025 -11.7118 2.215 -6 0 -8.86952 40.9231 -12.9101 2.5 -6.9 0 5.5707 10.662 19.4393 0.2 -0.5 1.95 -1.69076e-06 -2.06736e-13 -2.62396e-14 0 0 0 5.96354e-16 5.96354e-16 3.18055e-15 -1.8 -1.4 0.085 9.10003 -17.525 -2.81022 -2.215 -6 3.55271e-15 17.2387 44.1046 1.67001 -2.5 -6.9 0 -1.61793 -26.4099 -29.7855 -0.2 -0.5 1.95 -3.18055e-15 0 -1.59028e-15 0 0 0 5.96354e-16 5.96354e-16 3.18055e-15 -0.087 1.94 -0.2889 34.728 12.3553 6.88793 0 1.95 0.06 -17.2299 -6.76145 12.2093 0 0 0 3.91865 -21.5231 5.6813 0 1.6 0.34 1.95533 15.3742 4.74535 0 1.667 -0.24 -18.715 19.8799 25.8982 0 0 0 -8.85807 -0.867693 9.00313 2.7 1.55 -0.73 11.226 8.92226 -3.49716 5.45 0 0 68.1736 9.0173 -82.2836 3.45 0 0 -25.1902 -2.57543 7.97566 0 0 0 -3.28308e-06 -7.71969e-07 -1.44725e-07 0.75 -3.55271e-15 0 3.18055e-15 -1.59028e-15 -2.5842e-15 0 0 0 2.38542e-15 1.59028e-15 1.19271e-15 0 0 0 0.895582 0.351253 0.291555 -2.7 1.55 -0.73 37.5712 19.9849 79.9498 -5.45 0 0 149.814 -10.0185 116.29 -3.45 -1.77636e-15 0 -2.8511 -5.20972 -42.9768 0 0 0 -6.36111e-15 0 -6.36111e-15 -0.75 1.77636e-15 -1.77636e-15 3.18055e-15 0 -0 0 0 0 -6.36111e-15 0 -6.36111e-15 
-6.54826 18.3592 -23.1787 3.60212 1.07089 17.6995 0 0 0 5.46658e-16 0 -3.18055e-15 1.8 -1.4 0.085 -29.6017 -22.9922 -11.5047 2.215 -6 3.55271e-15 -7.83837 39.3233 -13.4242 2.5 -6.9 0 5.95281 12.5397 18.4828 0.2 -0.5 1.95 -1.69076e-06 -2.13097e-13 -2.70347e-14 0 0 0 5.46658e-16 0 -3.18055e-15 -1.8 -1.4 0.085 8.61647 -18.0083 -3.38025 -2.215 -6 0 18.2871 43.2078 -0.433779 -2.5 -6.9 0 1.84382 -22.8861 -27.1464 -0.2 -0.5 1.95 1.15295e-14 1.59028e-15 -0 0 0 0 5.46658e-16 0 -3.18055e-15 -0.087 1.94 -0.2889 34.4956 12.3432 6.91067 -3.55271e-15 1.95 0.06 -17.1029 -6.72278 12.1952 0 0 0 3.88435 -21.7327 5.54355 0 1.6 0.34 1.96862 15.1691 4.60634 -3.55271e-15 1.667 -0.24 -18.1939 20.283 25.3222 0 0 0 -11.7196 -0.573723 6.96905 2.7 1.55 -0.73 14.0395 8.94149 0.111776 5.45 3.55271e-15 0 67.1132 5.39044 -82.0782 3.45 3.55271e-15 0 -22.642 -2.87885 9.52527 0 0 0 -3.28308e-06 -7.71969e-07 -1.44725e-07 0.75 0 -3.55271e-15 4.77083e-15 -4.77083e-15 -1.59028e-15 0 0 0 6.06912e-32 1.59028e-15 -2.18663e-15 0 0 0 0.484332 0.217184 -1.09959 -2.7 1.55 -0.73 38.6179 20.9238 79.021 -5.45 0 0 149.004 -8.91814 114.497 -3.45 -1.77636e-15 -3.55271e-15 -1.37663 -5.88377 -43.7427 0 0 0 -3.18055e-15 3.18055e-15 -9.54166e-15 -0.75 0 -1.77636e-15 -6.36111e-15 3.18055e-15 -6.36111e-15 0 0 0 -3.18055e-15 3.18055e-15 -9.54166e-15 
-6.57711 18.4154 -23.1573 2.84146 0.953322 18.5914 0 0 0 -9.44227e-16 1.98785e-16 -0 1.8 -1.4 0.085 -29.6016 -22.3621 -11.2728 2.215 -6 0 -6.71927 37.6148 -13.6858 2.5 -6.9 3.55271e-15 6.8536 15.0531 17.7504 0.2 -0.5 1.95 -1.69076e-06 -2.13097e-13 -2.78299e-14 0 0 0 -9.44227e-16 1.98785e-16 -0 -1.8 -1.4 0.085 8.05326 -18.4701 -4.03409 -2.215 -6 3.55271e-15 19.2433 42.193 -2.61774 -2.5 -6.9 0 5.34337 -18.9496 -24.4574 -0.2 -0.5 1.95 -4.37326e-15 0 1.59028e-15 0 0 0 -9.44227e-16 1.98785e-16 -0 -0.087 1.94 -0.2889 34.2598 12.3882 6.91315 3.55271e-15 1.95 0.06 -16.9885 -6.71272 12.1766 0 0 0 3.8687 -21.9651 5.40159 0 1.6 0.34 2.00247 14.9411 4.45734 0 1.667 -0.24 -17.6695 20.6765 24.7403 0 0 0 -14.9371 -0.131357 4.35697 2.7 1.55 -0.73 17.0196 8.89156 4.35881 5.45 -3.55271e-15 0 65.8381 2.06454 -82.7231 3.45 0 0 -19.4594 -3.21544 11.3965 0 0 0 -3.28308e-06 -7.71969e-07 -1.44725e-07 0.75 3.55271e-15 3.55271e-15 3.18055e-15 -1.59028e-15 1.98785e-15 0 0 0 3.18055e-15 0 1.59028e-15 0 0 0 0.031871 0.0947009 -2.45136 -2.7 1.55 -0.73 39.8202 21.8579 77.9168 -5.45 -1.77636e-15 3.55271e-15 148.24 -7.81266 112.693 -3.45 1.77636e-15 0 0.0702979 -6.57285 -44.5478 0 0 0 -3.53113e-31 6.36111e-15 3.18055e-15 -0.75 0 0 -4.77083e-15 -3.18055e-15 -3.18055e-15 0 0 0 -3.53113e-31 6.36111e-15 3.18055e-15 
